<svg width="27" height="21" viewBox="0 0 27 21" fill="none" xmlns="http://www.w3.org/2000/svg">
<path d="M25.8887 5.0611C25.7712 5.0611 25.6505 5.07786 25.5301 5.11115L24.1675 5.48652L22.7526 2.0398C22.3519 1.06327 21.1669 0.268921 20.1114 0.268921H6.86955C5.81394 0.268921 4.62906 1.06327 4.22833 2.0398L2.81525 5.48181L1.46978 5.11115C1.34948 5.07798 1.22872 5.0611 1.11129 5.0611C0.467429 5.0611 0 5.55298 0 6.23082V7.03425C0 7.8255 0.643633 8.46913 1.43489 8.46913H1.58894L1.36062 9.02541C0.988236 9.93272 0.685302 11.4685 0.685302 12.4492V19.2966C0.685302 20.0878 1.32905 20.7315 2.12019 20.7315H3.99427C4.78552 20.7315 5.42916 20.0878 5.42916 19.2966V17.5865H21.552V19.2966C21.552 20.0878 22.1957 20.7315 22.9869 20.7315H24.8609C25.6521 20.7315 26.2958 20.0878 26.2958 19.2966V12.4492C26.2958 11.4686 25.9928 9.93272 25.6203 9.02541L25.392 8.46913H25.5651C26.3563 8.46913 27 7.8255 27 7.03425V6.23082C27 5.55298 26.5327 5.0611 25.8887 5.0611ZM3.84424 7.6897L5.98452 2.47624C6.22431 1.89218 6.93705 1.41431 7.5684 1.41431H19.4128C20.0441 1.41431 20.7569 1.89218 20.9965 2.47624L23.1368 7.6897C23.3766 8.27376 23.0562 8.75163 22.4249 8.75163H4.55629C3.92494 8.75163 3.60455 8.27376 3.84424 7.6897ZM8.62218 14.284C8.62218 14.5997 8.3639 14.8579 8.04823 14.8579H3.98233C3.66666 14.8579 3.40838 14.5997 3.40838 14.284V12.3327C3.40838 12.017 3.66666 11.7587 3.98233 11.7587H8.04823C8.3639 11.7587 8.62218 12.017 8.62218 12.3327V14.284ZM23.5342 14.284C23.5342 14.5997 23.2759 14.8579 22.9603 14.8579H18.8945C18.5788 14.8579 18.3205 14.5997 18.3205 14.284V12.3327C18.3205 12.017 18.5788 11.7587 18.8945 11.7587H22.9603C23.2759 11.7587 23.5342 12.017 23.5342 12.3327V14.284Z" fill="#54A0FF"/>
</svg>
