<svg width="26" height="26" viewBox="0 0 26 26" fill="none" xmlns="http://www.w3.org/2000/svg">
<g clip-path="url(#clip0)">
<path d="M13 8.125C10.312 8.125 8.125 10.312 8.125 13C8.125 15.688 10.312 17.875 13 17.875C15.688 17.875 17.875 15.688 17.875 13C17.875 10.312 15.688 8.125 13 8.125ZM13 16.1484C11.2639 16.1484 9.85156 14.7361 9.85156 13C9.85156 11.2639 11.2639 9.85156 13 9.85156C14.7361 9.85156 16.1484 11.2639 16.1484 13C16.1484 14.7361 14.7361 16.1484 13 16.1484Z" fill="#54A0FF"/>
<path d="M26 15.4254V10.5746L22.1581 9.98883C22.0075 9.53041 21.8224 9.08369 21.6048 8.65344L23.9073 5.52266L20.4773 2.09274L17.3466 4.39516C16.9161 4.17755 16.4696 3.99248 16.0112 3.84192L15.4254 0H10.5746L9.98883 3.84192C9.53041 3.99248 9.08369 4.17755 8.65344 4.39516L5.52266 2.09274L2.09274 5.52266L4.39516 8.65344C4.17755 9.08389 3.99248 9.53041 3.84192 9.98883L0 10.5746V15.4254L3.84192 16.0112C3.99248 16.4696 4.17755 16.9163 4.39516 17.3466L2.09274 20.4773L5.52266 23.9073L8.65344 21.6048C9.08389 21.8224 9.53041 22.0075 9.98883 22.1581L10.5746 26H15.4254L16.0112 22.1581C16.4696 22.0075 16.9161 21.8224 17.3466 21.6048L20.4773 23.9073L23.9073 20.4773L21.6048 17.3466C21.8224 16.9161 22.0075 16.4696 22.1581 16.0112L26 15.4254ZM13 19.3984C9.47189 19.3984 6.60156 16.5281 6.60156 13C6.60156 9.47189 9.47189 6.60156 13 6.60156C16.5281 6.60156 19.3984 9.47189 19.3984 13C19.3984 16.5281 16.5281 19.3984 13 19.3984Z" fill="#54A0FF"/>
</g>
<defs>
<clipPath id="clip0">
<rect width="26" height="26" fill="white" transform="matrix(1 0 0 -1 0 26)"/>
</clipPath>
</defs>
</svg>
