<svg width="199" height="49" viewBox="0 0 199 49" fill="none" xmlns="http://www.w3.org/2000/svg">
<path d="M1.08333 23C0.4875 23 0 22.5125 0 21.9167V11.0833C0 10.4875 0.4875 10 1.08333 10H11.9167C12.5125 10 13 10.4875 13 11.0833C13 11.6792 12.5125 12.1667 11.9167 12.1667H2.16667V21.9167C2.16667 22.5125 1.67917 23 1.08333 23Z" fill="black"/>
<path d="M32.9167 23C32.3208 23 31.8333 22.5125 31.8333 21.9167V12.1667H22.0833C21.4875 12.1667 21 11.6792 21 11.0833C21 10.4875 21.4875 10 22.0833 10H32.9167C33.5125 10 34 10.4875 34 11.0833V21.9167C34 22.5125 33.5125 23 32.9167 23Z" fill="black"/>
<path d="M11.9167 44H1.08333C0.4875 44 0 43.5125 0 42.9167V32.0833C0 31.4875 0.4875 31 1.08333 31C1.67917 31 2.16667 31.4875 2.16667 32.0833V41.8333H11.9167C12.5125 41.8333 13 42.3208 13 42.9167C13 43.5125 12.5125 44 11.9167 44Z" fill="black"/>
<path d="M32.9167 44H22.0833C21.4875 44 21 43.5125 21 42.9167C21 42.3208 21.4875 41.8333 22.0833 41.8333H31.8333V32.0833C31.8333 31.4875 32.3208 31 32.9167 31C33.5125 31 34 31.4875 34 32.0833V42.9167C34 43.5125 33.5125 44 32.9167 44Z" fill="black"/>
<path d="M21.0073 32.9697C20.5743 32.9697 20.1995 32.6941 20.058 32.2848L17.0101 23.105L13.9622 32.2764C13.804 32.811 13.2544 33.1117 12.7214 32.9613C12.1884 32.8026 11.8886 32.2514 12.0385 31.7168C12.0469 31.6917 12.0552 31.6667 12.0635 31.6416L16.0607 19.6136C16.2939 19.0873 16.9101 18.8535 17.4348 19.0957C17.668 19.2043 17.8512 19.3881 17.9511 19.6136L21.9483 31.6416C22.1232 32.1678 21.84 32.7358 21.3154 32.9112C21.2238 32.953 21.1155 32.9697 21.0073 32.9697Z" fill="#2196F3"/>
<path d="M19.9066 29H14.0934C13.492 29 13 28.55 13 28C13 27.45 13.492 27 14.0934 27H19.9066C20.508 27 21 27.45 21 28C21 28.55 20.508 29 19.9066 29Z" fill="#2196F3"/>
<path d="M50 36.5607V17.1387H54.2941V25.6289L62.213 17.1387H67.3993L59.4525 25.3792L67.7618 36.5607H62.6033L56.5526 28.2925L54.2941 30.6231V36.5607H50Z" fill="black"/>
<path d="M69.9219 41V21.689H74.1602V23.8254C75.3499 22.2162 76.902 21.4116 78.8167 21.4116C80.6756 21.4116 82.2743 22.1052 83.6127 23.4925C84.9511 24.8798 85.6203 26.7665 85.6203 29.1526C85.6203 31.5202 84.9511 33.3977 83.6127 34.785C82.2929 36.1538 80.6942 36.8382 78.8167 36.8382C76.9578 36.8382 75.4056 36.0983 74.1602 34.6185V41H69.9219ZM75.1361 32.1214C75.8425 32.8798 76.7069 33.259 77.7293 33.259C78.7517 33.259 79.616 32.8798 80.3224 32.1214C81.0288 31.3445 81.382 30.3364 81.382 29.0971C81.382 27.8948 81.0288 26.9145 80.3224 26.1561C79.616 25.3792 78.7517 24.9908 77.7293 24.9908C76.7069 24.9908 75.8425 25.3792 75.1361 26.1561C74.4483 26.9145 74.1044 27.9133 74.1044 29.1526C74.1044 30.3549 74.4483 31.3445 75.1361 32.1214Z" fill="black"/>
<path d="M92.2232 30.5399V27.7098H97.4096C97.1493 26.8775 96.7032 26.2116 96.0711 25.7121C95.4577 25.1942 94.7327 24.9353 93.8962 24.9353C92.4835 24.9353 91.2752 25.4069 90.2714 26.3503L88.0686 23.7699C89.6487 22.1977 91.5819 21.4116 93.8684 21.4116C96.1176 21.4116 97.9858 22.1699 99.4729 23.6867C100.96 25.185 101.704 27.0069 101.704 29.1526C101.704 31.3168 100.96 33.148 99.4729 34.6462C98.0044 36.1445 96.1548 36.8936 93.9241 36.8936C91.4332 36.8936 89.3605 35.9873 87.7061 34.1746L90.1041 31.7607C91.238 32.8335 92.4463 33.3699 93.7289 33.3699C94.6398 33.3699 95.4205 33.111 96.0711 32.5931C96.7218 32.0751 97.1772 31.3907 97.4374 30.5399H92.2232Z" fill="black"/>
<path d="M127.027 21.689V36.5607H104.776V21.689H109.015V32.9538H113.783V21.689H118.021V32.9538H122.761V21.689H127.027Z" fill="black"/>
<path d="M129.581 36.5607L137.946 17H141.906L150.271 36.5607H145.782L143.997 32.2046H135.743L133.959 36.5607H129.581ZM137.277 28.4312H142.463L139.87 22.1329L137.277 28.4312Z" fill="black"/>
<path d="M152.837 21.689H161.035C162.559 21.689 163.767 22.022 164.66 22.6879C165.571 23.3538 166.026 24.2601 166.026 25.4069C166.026 26.9607 165.236 28.0798 163.656 28.7642C165.608 29.3561 166.584 30.6046 166.584 32.5098C166.584 33.7676 166.082 34.7572 165.078 35.4786C164.093 36.2 162.736 36.5607 161.007 36.5607H152.837V21.689ZM157.02 27.6543H160.003C160.579 27.6543 161.016 27.5156 161.314 27.2381C161.63 26.9607 161.788 26.6 161.788 26.1561C161.788 25.7676 161.639 25.4439 161.342 25.185C161.063 24.926 160.635 24.7965 160.059 24.7965H157.02V27.6543ZM157.02 33.259H160.366C161.648 33.259 162.29 32.7595 162.29 31.7607C162.29 30.7988 161.611 30.3179 160.254 30.3179H157.02V33.259Z" fill="black"/>
<path d="M181.24 21.689V25.296H176.806V36.5607H172.512V25.296H168.079V21.689H181.24Z" fill="black"/>
<path d="M196.658 34.6462C195.115 36.1445 193.191 36.8936 190.886 36.8936C188.581 36.8936 186.657 36.1538 185.114 34.674C183.59 33.1757 182.828 31.3353 182.828 29.1526C182.828 26.9884 183.599 25.1572 185.142 23.659C186.703 22.1607 188.637 21.4116 190.942 21.4116C193.247 21.4116 195.161 22.1607 196.686 23.659C198.229 25.1387 199 26.9699 199 29.1526C199 31.3168 198.219 33.148 196.658 34.6462ZM190.942 33.259C192.113 33.259 193.052 32.8705 193.758 32.0936C194.464 31.2983 194.817 30.3179 194.817 29.1526C194.817 28.0243 194.446 27.0624 193.702 26.2671C192.977 25.4532 192.038 25.0462 190.886 25.0462C189.715 25.0462 188.776 25.4439 188.07 26.2393C187.363 27.0162 187.01 27.9873 187.01 29.1526C187.01 30.2809 187.373 31.252 188.098 32.0659C188.841 32.8613 189.789 33.259 190.942 33.259Z" fill="black"/>
</svg>
