<svg width="24" height="24" viewBox="0 0 24 24" fill="none" xmlns="http://www.w3.org/2000/svg">
<g clip-path="url(#clip0)">
<path d="M22.8397 17.2277C22.0905 16.4784 21.0943 16.0659 20.0346 16.0659C19.4829 16.0659 18.9488 16.1786 18.4574 16.3916C18.4045 16.3131 18.344 16.238 18.2746 16.1687L13.3202 11.2141L19.0313 5.50294C19.1179 5.51892 19.2061 5.5281 19.2955 5.5281C19.2955 5.5281 19.2955 5.5281 19.2956 5.5281C19.7172 5.5281 20.1243 5.35298 20.4419 5.03527L21.6151 3.86223C21.6393 3.83808 21.7214 3.74854 21.7633 3.61127C21.8266 3.40396 21.7681 3.19018 21.6027 3.02504L20.3173 1.73955C20.1622 1.58438 19.9999 1.55185 19.8911 1.55185C19.6575 1.55185 19.5001 1.69762 19.471 1.72675L18.302 2.89537C17.8982 3.29945 17.7407 3.82357 17.8321 4.3087L12.1234 10.0173L7.62248 5.5162C7.82764 5.03243 7.93589 4.50808 7.93589 3.96685C7.93589 2.90715 7.52308 1.91094 6.77373 1.16171C6.02439 0.412701 5.02828 0 3.96882 0C3.61517 0 3.26323 0.0470395 2.92273 0.139758C2.77356 0.18045 2.65149 0.30332 2.61181 0.452713C2.57123 0.605506 2.61703 0.762153 2.7365 0.881622C2.7365 0.881622 4.13544 2.29133 4.60357 2.75935C4.65265 2.80831 4.65242 2.9254 4.64551 2.96745L4.64109 2.99829C4.59065 3.54893 4.48999 4.21791 4.41224 4.4123C4.21637 4.49233 3.53639 4.59434 2.97668 4.64444L2.9531 4.6475C2.94891 4.64807 2.94109 4.64863 2.93077 4.64863C2.87433 4.64863 2.79124 4.63277 2.71575 4.55728C2.22836 4.07033 0.884387 2.73611 0.884387 2.73611C0.763898 2.61562 0.640122 2.59035 0.557491 2.59035C0.365706 2.59035 0.193757 2.72897 0.139123 2.92835C-0.230846 4.29771 0.161566 5.77056 1.16322 6.77221C1.91246 7.52144 2.90867 7.93414 3.96848 7.93414C4.5096 7.93414 5.03406 7.8259 5.51772 7.62074L10.0188 12.1218L7.54439 14.5962C7.33514 14.4958 7.10493 14.4411 6.86543 14.4411C6.44582 14.4411 6.05227 14.6037 5.75734 14.8986L5.19683 15.4591C5.19547 15.4605 5.19445 15.4618 5.1932 15.4632C5.16215 15.4614 5.1312 15.4586 5.09981 15.4586C4.68019 15.4586 4.28665 15.6212 3.99171 15.9161L0.887221 19.0204C0.276161 19.6314 0.276161 20.6257 0.887221 21.2368L2.10061 22.4502C2.39566 22.7453 2.78909 22.9078 3.2087 22.9078C3.62832 22.9078 4.02186 22.7452 4.3168 22.4503L7.42106 19.3462C7.75057 19.0166 7.90064 18.576 7.87491 18.1438C7.87593 18.1428 7.87706 18.1419 7.87797 18.141L8.43848 17.5805C8.92134 17.0978 9.02109 16.3764 8.741 15.7933L11.2154 13.3187L16.17 18.2732C16.2394 18.3427 16.3146 18.4043 16.3944 18.458C15.7693 19.9073 16.0469 21.656 17.2291 22.8383C17.9782 23.5874 18.9744 24 20.0341 24C20.0341 24 20.0342 24 20.0343 24C20.3878 24 20.7397 23.9531 21.0804 23.8602C21.2296 23.8194 21.3517 23.6965 21.3912 23.5471C21.4316 23.3944 21.3859 23.2377 21.2664 23.1185C21.2664 23.1185 19.8675 21.7087 19.3992 21.2405C19.3502 21.1916 19.3504 21.0745 19.3573 21.0323L19.3616 21.0017C19.4122 20.451 19.513 19.7819 19.5907 19.5877C19.7864 19.5076 20.4663 19.4057 21.0262 19.3557L21.0498 19.3526C21.054 19.352 21.0617 19.3515 21.0723 19.3515C21.1287 19.3515 21.2119 19.3673 21.2872 19.4427C21.7743 19.9298 23.1183 21.2639 23.1182 21.2638C23.2388 21.3843 23.3626 21.4097 23.4452 21.4097C23.6376 21.4097 23.8095 21.2707 23.8633 21.0718C24.2338 19.7025 23.8415 18.2296 22.8397 17.2277Z" fill="#54A0FF"/>
</g>
<defs>
<clipPath id="clip0">
<rect width="24" height="24" fill="white"/>
</clipPath>
</defs>
</svg>
