<svg width="28" height="28" viewBox="0 0 28 28" fill="none" xmlns="http://www.w3.org/2000/svg">
<path d="M18.1016 0H9.89844C8.99225 0 8.25781 0.734436 8.25781 1.64062V3.33594C8.25781 4.24191 8.99225 4.97656 9.89844 4.97656H18.1016C19.0078 4.97656 19.7422 4.24191 19.7422 3.33594V1.64062C19.7422 0.734436 19.0078 0 18.1016 0Z" fill="#54A0FF"/>
<path d="M3.33594 26.3594V28H24.6641V26.3594C24.6641 24.5472 23.195 23.0781 21.3828 23.0781H6.61719C4.80502 23.0781 3.33594 24.5472 3.33594 26.3594Z" fill="#54A0FF"/>
<path d="M11.5391 18.1562H16.4609V21.4375H11.5391V18.1562Z" fill="#54A0FF"/>
<path d="M11.5391 6.61719H16.4609V16.5156H11.5391V6.61719Z" fill="#54A0FF"/>
<path d="M5.21679 12.4587L6.49126 21.4375H9.89833V6.61719H8.73836L6.37676 8.97879C5.46822 9.88733 5.035 11.1883 5.21679 12.4587Z" fill="#54A0FF"/>
<path d="M18.1016 6.61719V21.4375H21.5086L22.7831 12.4587C22.9649 11.1883 22.5317 9.88733 21.6231 8.97879L19.2615 6.61719H18.1016Z" fill="#54A0FF"/>
</svg>
