<svg width="22" height="24" viewBox="0 0 22 24" fill="none" xmlns="http://www.w3.org/2000/svg">
<path d="M5.28168 18.404C5.10484 17.4303 4.23948 16.8402 2.93209 16.8402C1.461 16.8402 0.547178 17.586 0.547178 18.7864V22.054C0.547178 23.2543 1.461 24 2.93209 24C4.23948 24 5.10496 23.4101 5.28168 22.4362C5.95201 22.3508 6.35727 21.9506 6.35727 21.3483V21.1805H9.27569C9.61272 21.7864 10.2589 22.1977 11.0002 22.1977C11.7414 22.1977 12.3876 21.7865 12.7246 21.1805H15.6429V21.3483C15.6429 21.9506 16.0483 22.3509 16.7185 22.4362C16.8953 23.4101 17.7608 24 19.0682 24C20.5393 24 21.4531 23.2543 21.4531 22.054V18.7864C21.4531 17.586 20.5393 16.8402 19.0683 16.8402C17.7609 16.8402 16.8955 17.4303 16.7186 18.404C16.0483 18.4895 15.643 18.8897 15.643 19.4919V19.6597H12.8894C12.7193 19.0925 12.3012 18.6318 11.7606 18.4052L11.7606 7.41811C12.265 7.14629 12.6088 6.61325 12.6088 6.00126V5.07213C12.6088 5.05634 12.6068 5.04103 12.6064 5.02536C12.7514 4.82189 12.8581 4.59033 12.9176 4.33996H15.643V4.50788C15.643 5.1101 16.0484 5.51018 16.7186 5.59564C16.8953 6.56938 17.7608 7.15943 19.0683 7.15943C20.5394 7.15943 21.4531 6.41376 21.4531 5.21341V1.94577C21.4531 0.745424 20.5393 -0.00012207 19.0683 -0.00012207C17.7609 -0.00012207 16.8955 0.589928 16.7186 1.56366C16.0483 1.64912 15.643 2.0492 15.643 2.65142V2.81946H12.6582C12.3068 2.27425 11.6957 1.91178 11.0003 1.91178C10.3049 1.91178 9.69373 2.27437 9.34235 2.81946H6.35739V2.65142C6.35739 2.0492 5.95201 1.64912 5.2818 1.56366C5.10508 0.589928 4.2396 -0.00012207 2.93221 -0.00012207C1.46112 -0.00012207 0.547298 0.745424 0.547298 1.94577V5.21341C0.547298 6.41376 1.46112 7.15943 2.93221 7.15943C4.2396 7.15943 5.10508 6.56938 5.2818 5.59564C5.95213 5.51018 6.35739 5.1101 6.35739 4.50788V4.33996H9.08306C9.14261 4.59021 9.24929 4.82177 9.39418 5.02524C9.39382 5.04091 9.39177 5.05622 9.39177 5.07213V6.00126C9.39177 6.61325 9.73555 7.14629 10.2399 7.41811L10.2399 18.4053C9.69951 18.6319 9.28123 19.0926 9.11115 19.6598H6.35727V19.492C6.35727 18.8897 5.95189 18.4895 5.28168 18.404Z" fill="#54A0FF"/>
</svg>
